<svg width="89" height="89" viewBox="0 0 89 89" fill="none" xmlns="http://www.w3.org/2000/svg">
<path d="M25.4286 34.9643H19.0714C17.3857 34.9664 15.7701 35.6369 14.5782 36.8282C13.3869 38.0201 12.7165 39.6357 12.7143 41.3214V47.6786C12.7164 49.3643 13.3869 50.9799 14.5782 52.1718C15.7702 53.363 17.3857 54.0335 19.0714 54.0357H25.4286C27.1143 54.0336 28.7299 53.3631 29.9218 52.1718C31.1131 50.9798 31.7835 49.3643 31.7857 47.6786V41.3214C31.7836 39.6356 31.1131 38.02 29.9218 36.8282C28.7298 35.6369 27.1143 34.9664 25.4286 34.9643ZM19.0714 47.6786V41.3214H25.4286L25.4314 47.6786H19.0714ZM47.6786 34.9643H41.3214C39.6357 34.9664 38.0201 35.6369 36.8282 36.8282C35.6369 38.0201 34.9665 39.6357 34.9643 41.3214V47.6786C34.9664 49.3643 35.6369 50.9799 36.8282 52.1718C38.0202 53.363 39.6357 54.0335 41.3214 54.0357H47.6786C49.3643 54.0336 50.9799 53.3631 52.1718 52.1718C53.3631 50.9798 54.0335 49.3643 54.0357 47.6786V41.3214C54.0336 39.6356 53.3631 38.02 52.1718 36.8282C50.9798 35.6369 49.3643 34.9664 47.6786 34.9643ZM41.3214 47.6786V41.3214H47.6786L47.6814 47.6786H41.3214ZM69.9286 34.9643H63.5714C61.8857 34.9664 60.2701 35.6369 59.0782 36.8282C57.8869 38.0201 57.2165 39.6357 57.2143 41.3214V47.6786C57.2164 49.3643 57.8869 50.9799 59.0782 52.1718C60.2702 53.363 61.8857 54.0335 63.5714 54.0357H69.9286C71.6143 54.0336 73.2299 53.3631 74.4218 52.1718C75.6131 50.9798 76.2835 49.3643 76.2857 47.6786V41.3214C76.2836 39.6356 75.6131 38.02 74.4218 36.8282C73.2298 35.6369 71.6143 34.9664 69.9286 34.9643V34.9643ZM63.5714 47.6786V41.3214H69.9286L69.9314 47.6786H63.5714ZM25.4286 57.2143H19.0714C17.3857 57.2164 15.7701 57.8869 14.5782 59.0782C13.3869 60.2701 12.7165 61.8857 12.7143 63.5714V69.9286C12.7164 71.6143 13.3869 73.2299 14.5782 74.4218C15.7702 75.613 17.3857 76.2835 19.0714 76.2857H25.4286C27.1143 76.2836 28.7299 75.6131 29.9218 74.4218C31.1131 73.2298 31.7835 71.6143 31.7857 69.9286V63.5714C31.7836 61.8856 31.1131 60.2701 29.9218 59.0782C28.7298 57.8869 27.1143 57.2164 25.4286 57.2143ZM19.0714 69.9286V63.5714H25.4286L25.4314 69.9286H19.0714ZM47.6786 57.2143H41.3214C39.6357 57.2164 38.0201 57.8869 36.8282 59.0782C35.6369 60.2701 34.9665 61.8857 34.9643 63.5714V69.9286C34.9664 71.6143 35.6369 73.2299 36.8282 74.4218C38.0202 75.613 39.6357 76.2835 41.3214 76.2857H47.6786C49.3643 76.2836 50.9799 75.6131 52.1718 74.4218C53.3631 73.2298 54.0335 71.6143 54.0357 69.9286V63.5714C54.0336 61.8856 53.3631 60.2701 52.1718 59.0782C50.9798 57.8869 49.3643 57.2164 47.6786 57.2143ZM41.3214 69.9286V63.5714H47.6786L47.6814 69.9286H41.3214ZM69.9286 57.2143H63.5714C61.8857 57.2164 60.2701 57.8869 59.0782 59.0782C57.8869 60.2701 57.2165 61.8857 57.2143 63.5714V69.9286C57.2164 71.6143 57.8869 73.2299 59.0782 74.4218C60.2702 75.613 61.8857 76.2835 63.5714 76.2857H69.9286C71.6143 76.2836 73.2299 75.6131 74.4218 74.4218C75.6131 73.2298 76.2835 71.6143 76.2857 69.9286V63.5714C76.2836 61.8856 75.6131 60.2701 74.4218 59.0782C73.2298 57.8869 71.6143 57.2164 69.9286 57.2143V57.2143ZM63.5714 69.9286V63.5714H69.9286L69.9314 69.9286H63.5714ZM79.4643 6.3571H69.9286V3.17853C69.9286 2.04261 69.3227 0.993304 68.3393 0.425702C67.3559 -0.141901 66.1441 -0.141901 65.1607 0.425702C64.1774 0.993304 63.5714 2.04265 63.5714 3.17853V6.3571H47.6786V3.17853C47.6786 2.04261 47.0727 0.993304 46.0893 0.425702C45.1059 -0.141901 43.8941 -0.141901 42.9107 0.425702C41.9274 0.993304 41.3214 2.04265 41.3214 3.17853V6.3571H25.4286V3.17853C25.4286 2.04261 24.8227 0.993304 23.8393 0.425702C22.8559 -0.141901 21.6441 -0.141901 20.6607 0.425702C19.6774 0.993304 19.0714 2.04265 19.0714 3.17853V6.3571H9.53571C7.00775 6.35994 4.58332 7.36531 2.79623 9.15334C1.00828 10.9406 0.00290612 13.365 0 15.8928V79.4643C0.00283801 81.9922 1.00821 84.4167 2.79623 86.2038C4.58346 87.9917 7.00793 88.9971 9.53571 89H79.4643C81.9922 88.9972 84.4167 87.9918 86.2038 86.2038C87.9917 84.4165 88.9971 81.9921 89 79.4643V15.8928C88.9972 13.3649 87.9918 10.9404 86.2038 9.15334C84.4165 7.36538 81.9921 6.36001 79.4643 6.3571V6.3571ZM9.53571 12.7142H19.0714V15.8928C19.0714 17.0287 19.6773 18.078 20.6607 18.6456C21.6441 19.2132 22.8559 19.2132 23.8393 18.6456C24.8226 18.078 25.4286 17.0287 25.4286 15.8928V12.7142H41.3214V15.8928C41.3214 17.0287 41.9273 18.078 42.9107 18.6456C43.8941 19.2132 45.1059 19.2132 46.0893 18.6456C47.0726 18.078 47.6786 17.0287 47.6786 15.8928V12.7142H63.5714V15.8928C63.5714 17.0287 64.1773 18.078 65.1607 18.6456C66.1441 19.2132 67.3559 19.2132 68.3393 18.6456C69.3226 18.078 69.9286 17.0287 69.9286 15.8928V12.7142H79.4643C80.3072 12.715 81.1153 13.0506 81.7113 13.6458C82.3065 14.2418 82.6421 15.0499 82.6428 15.8928V22.2499H6.35712V15.8928C6.35783 15.0499 6.69344 14.2418 7.2887 13.6458C7.88467 13.0506 8.69281 12.715 9.53568 12.7142H9.53571ZM79.4643 82.6429H9.53571C8.69283 82.6421 7.88471 82.3065 7.28874 81.7113C6.69347 81.1153 6.35787 80.3072 6.35716 79.4643V28.6071H82.6429V79.4643C82.6422 80.3072 82.3066 81.1153 81.7113 81.7113C81.1153 82.3065 80.3072 82.6421 79.4643 82.6429H79.4643Z" fill="white"/>
</svg>
