<svg width="92" height="57" viewBox="0 0 92 57" fill="none" xmlns="http://www.w3.org/2000/svg">
<path d="M18.5996 28.4007C18.5996 33.8107 22.9897 38.2008 28.3997 38.2008C33.8097 38.2008 38.1998 33.8107 38.1998 28.4007C38.1998 22.9907 33.8097 18.6006 28.3997 18.6006C22.9897 18.6006 18.5996 22.9907 18.5996 28.4007ZM24.1198 28.4007C24.1198 26.0491 26.048 24.1208 28.3997 24.1208C30.7513 24.1208 32.6796 26.0491 32.6796 28.4007C32.6796 30.7523 30.7513 32.6806 28.3997 32.6806C26.0481 32.6806 24.1198 30.7523 24.1198 28.4007Z" fill="white" stroke="white" stroke-width="2"/>
<path d="M50.2798 3.76008V8.04001H38.1997V3.76008C38.1997 2.23969 36.9599 1 35.4397 1H28.3996C13.2925 1 1 13.2925 1 28.3996C1 43.1952 12.7902 55.291 27.4684 55.7837L27.4696 55.7999H28.3997C43.5069 55.7999 55.7993 43.5078 55.7993 28.4003C55.7993 27.7245 55.7736 27.049 55.7223 26.3736L88.7036 20.5513C88.7054 20.551 88.7072 20.5507 88.7089 20.5504C90.0314 20.3274 91 19.1914 91 17.8401V3.76008C91 2.23968 89.7602 1 88.2399 1H53.0398C51.5195 1 50.2798 2.23983 50.2798 3.76008ZM55.7996 10.7995V6.51952H85.4805V15.5221L52.18 21.3955L52.1716 21.397C50.6984 21.6699 49.667 23.0891 49.9439 24.5992C50.1627 25.8462 50.2801 27.1244 50.2801 28.3996C50.2801 40.4669 40.4669 50.2801 28.3996 50.2801C16.3324 50.2801 6.5192 40.4669 6.5192 28.3996C6.5192 16.3324 16.3326 6.51923 28.3996 6.5192C28.3996 6.5192 28.3996 6.5192 28.3996 6.5192L32.6786 6.51946V10.7995C32.6786 12.3198 33.9184 13.5595 35.4387 13.5595H53.0395C54.5599 13.5595 55.7996 12.3197 55.7996 10.7995Z" fill="white" stroke="white" stroke-width="2"/>
</svg>
