<svg width="74" height="75" viewBox="0 0 74 75" fill="none" xmlns="http://www.w3.org/2000/svg">
<path fill-rule="evenodd" clip-rule="evenodd" d="M11.34 0.000355877C5.07689 0.000355877 0 5.09536 0 11.3812V23.7846C0 30.0699 5.07707 35.1647 11.34 35.1647H31.9597C33.6677 35.1647 35.0526 33.7756 35.0526 32.0609V11.3808C35.0526 5.09501 29.975 0 23.7118 0L11.34 0.000355877ZM6.18572 11.3812C6.18572 8.52407 8.493 6.20794 11.34 6.20794H23.7115C26.5585 6.20794 28.8665 8.52407 28.8665 11.3812V28.9571H11.34C8.493 28.9571 6.18572 26.6417 6.18572 23.7846V11.3812ZM11.34 39.8349C5.07689 39.8349 0 44.9299 0 51.2157V63.6192C0 69.9045 5.07707 75 11.34 75H23.7115C29.9746 75 35.0522 69.9045 35.0522 63.6192V42.9391C35.0522 41.2251 33.6673 39.8353 31.9593 39.8353L11.34 39.8349ZM6.18572 51.2157C6.18572 48.3587 8.493 46.0425 11.34 46.0425H28.8665V63.6192C28.8665 66.4756 26.5585 68.7924 23.7115 68.7924H11.34C8.493 68.7924 6.18572 66.4758 6.18572 63.6192V51.2157ZM38.9471 11.3808C38.9471 5.09501 44.0247 0 50.2878 0H62.6593C68.9224 0 74 5.09501 74 11.3808V23.7843C74 30.0695 68.9224 35.1644 62.6593 35.1644H42.0396C40.3316 35.1644 38.9467 33.7753 38.9467 32.0606L38.9471 11.3808ZM50.2878 6.20758C47.4408 6.20758 45.1328 8.52372 45.1328 11.3808V28.9568H62.6593C65.5056 28.9568 67.8143 26.6413 67.8143 23.7843V11.3808C67.8143 8.52372 65.5058 6.20758 62.6593 6.20758H50.2878ZM42.0399 39.8349C40.332 39.8349 38.9471 41.2247 38.9471 42.9387V63.6188C38.9471 69.9041 44.0247 74.9996 50.2878 74.9996H62.6593C68.9224 74.9996 74 69.9041 74 63.6188V51.2154C74 44.9296 68.9224 39.8346 62.6593 39.8346L42.0399 39.8349ZM45.1328 63.6188V46.0422H62.6593C65.5056 46.0422 67.8143 48.3583 67.8143 51.2154V63.6188C67.8143 66.4752 65.5058 68.7921 62.6593 68.7921H50.2878C47.4408 68.7921 45.1328 66.4754 45.1328 63.6188V63.6188Z" fill="white"/>
</svg>
