<svg width="38" height="45" viewBox="0 0 38 45" fill="none" xmlns="http://www.w3.org/2000/svg">
<path d="M18.5714 0C20.4773 -1.49083e-06 22.3103 0.732522 23.6912 2.04606C25.0722 3.35959 25.8954 5.15365 25.9907 7.05714L26 7.42857H35.2857C35.7591 7.4291 36.2143 7.61035 36.5585 7.93529C36.9027 8.26023 37.1099 8.70434 37.1376 9.17688C37.1653 9.64941 37.0116 10.1147 36.7078 10.4777C36.404 10.8407 35.973 11.074 35.503 11.1299L35.2857 11.1429H33.709L31.5176 38.1699C31.3762 39.9139 30.5835 41.5407 29.2972 42.7269C28.0109 43.913 26.3253 44.5715 24.5756 44.5714H12.5673C10.8176 44.5715 9.13192 43.913 7.84563 42.7269C6.55933 41.5407 5.76666 39.9139 5.62529 38.1699L3.432 11.1429H1.85714C1.40227 11.1428 0.963231 10.9758 0.623309 10.6735C0.283387 10.3713 0.0662205 9.95475 0.0129999 9.503L0 9.28571C6.00053e-05 8.83084 0.167061 8.3918 0.469328 8.05188C0.771595 7.71196 1.1881 7.49479 1.63986 7.44157L1.85714 7.42857H11.1429C11.1429 5.45839 11.9255 3.56891 13.3186 2.17578C14.7118 0.782651 16.6012 0 18.5714 0V0ZM14.3929 17.1786C14.0563 17.1786 13.7311 17.3005 13.4774 17.5217C13.2238 17.7429 13.0588 18.0485 13.013 18.382L13 18.5714V33.4286L13.013 33.618C13.0589 33.9514 13.2239 34.2569 13.4775 34.478C13.7312 34.6992 14.0563 34.821 14.3929 34.821C14.7294 34.821 15.0545 34.6992 15.3082 34.478C15.5618 34.2569 15.7268 33.9514 15.7727 33.618L15.7857 33.4286V18.5714L15.7727 18.382C15.7269 18.0485 15.562 17.7429 15.3083 17.5217C15.0546 17.3005 14.7294 17.1786 14.3929 17.1786ZM22.75 17.1786C22.4134 17.1786 22.0882 17.3005 21.8346 17.5217C21.5809 17.7429 21.4159 18.0485 21.3701 18.382L21.3571 18.5714V33.4286L21.3701 33.618C21.416 33.9514 21.581 34.2569 21.8347 34.478C22.0883 34.6992 22.4135 34.821 22.75 34.821C23.0865 34.821 23.4117 34.6992 23.6653 34.478C23.919 34.2569 24.084 33.9514 24.1299 33.618L24.1429 33.4286V18.5714L24.1299 18.382C24.0841 18.0485 23.9191 17.7429 23.6654 17.5217C23.4118 17.3005 23.0866 17.1786 22.75 17.1786ZM18.5714 3.71429C17.6344 3.71399 16.7318 4.0679 16.0447 4.70507C15.3576 5.34223 14.9367 6.21557 14.8664 7.15L14.8571 7.42857H22.2857L22.2764 7.15C22.2061 6.21557 21.7853 5.34223 21.0982 4.70507C20.4111 4.0679 19.5085 3.71399 18.5714 3.71429V3.71429Z" fill="#F48C7D"/>
</svg>
