<svg xmlns="http://www.w3.org/2000/svg" width="531.272" height="539.282" viewBox="0 0 531.272 539.282">
  <g id="Group_994" data-name="Group 994" transform="translate(137 151.967)">
    <g id="Group_971" data-name="Group 971">
      <path id="Path_3845" data-name="Path 3845" d="M68.676,245.556c65.677,0,117.526-23.623,153.822-61.643l2.307-23.045-3.458-1.728c-39.753,51.271-80.657,74.316-152.671,74.316-94.482,0-172.837-70.286-172.837-186.661S-25.806-139.867,68.676-139.867c63.371,0,123.29,19.588,150.365,76.045l3.457-1.151-2.3-32.839c-35.146-35.718-94.487-54.155-151.521-54.155C-42.514-151.967-137-74.189-137,46.795c0,120.41,94.486,198.761,205.676,198.761" fill="#fff"/>
      <path id="Path_3846" data-name="Path 3846" d="M62.063,303.266a11.8,11.8,0,1,0-11.8-11.807,11.8,11.8,0,0,0,11.8,11.807" fill="#fff"/>
    </g>
    <g id="Group_985" data-name="Group 985">
      <g id="Group_972" data-name="Group 972">
        <path id="Path_3847" data-name="Path 3847" d="M102.093,51.708c-6.711-13.1-.792-26.762,11.248-32.928,6.176-3.164,13.624-4.459,19.41-2.54l2.07,3.429-.31.315c-6.064-4.611-13.637-3.409-20.5.105-10.231,5.24-14.817,17.2-8.363,29.8s18.836,15.867,29.068,10.628c7.8-3.995,10.949-8.758,12.41-16.516l.469,0,1.029,2.623c-1.821,6.13-6.126,11.564-13.237,15.206C123.346,67.991,108.77,64.747,102.093,51.708Z" fill="#fff"/>
      </g>
      <g id="Group_973" data-name="Group 973">
        <path id="Path_3848" data-name="Path 3848" d="M187.664,47.683c-13.488,1.026-25.393-7.629-26.5-22.236C160.044,10.771,170.509.486,184-.54c13.418-1.02,25.318,7.564,26.434,22.24C211.542,36.307,201.083,46.663,187.664,47.683ZM184.109.928c-11.462.871-20.039,10.1-18.965,24.216s10.946,21.943,22.409,21.072c11.391-.866,20.038-10.1,18.964-24.218S195.5.062,184.109.928Z" fill="#fff"/>
      </g>
      <g id="Group_974" data-name="Group 974">
        <path id="Path_3849" data-name="Path 3849" d="M281.243,17.065a2.824,2.824,0,0,0-2.979,2.026c-.919,2.278-3.3,8.429-6.8,18.786s-6.247,18.9-7.508,23.283l-.73-.246c-7.531-20.6-13.8-36.856-20.283-53.553-1.392,4.338-2.875,8.72-6.267,18.746-3.482,10.29-5.351,16.688-6,19.055a2.826,2.826,0,0,0,1.137,3.42l-.18.308a24.331,24.331,0,0,0-6.041-2.043l.046-.355a2.825,2.825,0,0,0,2.979-2.026c.919-2.278,3.3-8.429,6.8-18.786S240.962,9.059,241.5,7.244c.607-2.014.39-2.9-.959-3.95l.18-.309a21.514,21.514,0,0,0,2.72,1.142c.93.315,1.86.63,2.812.877,6.721,18.406,12.965,34.5,18.509,48.735,1.281-3.785,2.718-8.255,5.437-16.288,3.5-10.358,5.35-16.688,6-19.057a2.825,2.825,0,0,0-1.137-3.418l.179-.31a23.269,23.269,0,0,0,2.987,1.232,22.772,22.772,0,0,0,3.054.812Z" fill="#fff"/>
      </g>
      <g id="Group_984" data-name="Group 984">
        <g id="Group_975" data-name="Group 975">
          <path id="Path_3850" data-name="Path 3850" d="M340.45,59.829a2.824,2.824,0,0,0-3.524.749c-1.713,1.763-6.239,6.558-13.4,14.823S310.6,90.539,307.777,94.12l-.582-.505c.813-21.92,1.155-39.336,1.461-57.246-2.93,3.49-5.959,6.986-12.888,14.986-7.113,8.212-11.26,13.428-12.761,15.374a2.826,2.826,0,0,0-.239,3.594l-.282.219a24.2,24.2,0,0,0-4.821-4.175l.176-.312a2.825,2.825,0,0,0,3.524-.749c1.712-1.763,6.238-6.558,13.4-14.823s11.42-13.29,12.605-14.767c1.324-1.635,1.458-2.539.607-4.019l.282-.218a21.6,21.6,0,0,0,2.087,2.085c.741.644,1.485,1.287,2.272,1.876-.733,19.58-1.037,36.843-1.283,52.114,2.616-3.019,5.637-6.615,11.189-13.025,7.159-8.264,11.262-13.428,12.761-15.374a2.822,2.822,0,0,0,.24-3.594l.282-.219a24.339,24.339,0,0,0,4.821,4.176Z" fill="#fff"/>
        </g>
        <g id="Group_976" data-name="Group 976">
          <path id="Path_3851" data-name="Path 3851" d="M320.481,107.832a34.077,34.077,0,0,0-2.208-3.419l.268-.236c1.291,1.118,2.2,1.159,4.061.173,1.675-.882,7.483-4.141,16.9-9.556s15.156-8.8,16.761-9.8c1.788-1.109,2.212-1.918,1.894-3.6l.339-.114a33.767,33.767,0,0,0,1.844,3.63l11.565,20.112a31.3,31.3,0,0,0-3.052,3.129l-.418-.164c.779-4.41-1.556-9.455-4.594-14.74-1.154-2-2.4-4.037-3.712-6.034-2.587,1.408-9.428,5.26-17.752,10.047,8.49,14.766,8.995,14.8,10.993,14.619l.079.277a16.6,16.6,0,0,0-2.474,1.18,17.7,17.7,0,0,0-2.326,1.58l-.2-.207c1.308-1.8,1.385-2.09-7.1-16.856-9.479,5.451-16.31,9.459-18.888,11.022,1.057,1.98,2.175,3.923,3.328,5.929,3.7,6.44,7.657,12.333,12.452,14.347l-.068.442a33.479,33.479,0,0,0-4.937.413Z" fill="#fff"/>
        </g>
        <g id="Group_977" data-name="Group 977">
          <path id="Path_3852" data-name="Path 3852" d="M361.3,135.6c14.341-3.31,26.146,5.763,29.189,18.944,1.56,6.761,1,14.3-2.275,19.443l-3.829,1.171-.232-.378c5.953-4.756,6.635-12.393,4.9-19.906-2.585-11.2-13.061-18.566-26.856-15.381s-19.983,14.4-17.4,25.6c1.97,8.537,5.821,12.755,12.986,16.065l-.11.457-2.795.358c-5.5-3.262-9.719-8.762-11.516-16.548C340.323,152.244,347.026,138.9,361.3,135.6Z" fill="#fff"/>
        </g>
        <g id="Group_978" data-name="Group 978">
          <path id="Path_3853" data-name="Path 3853" d="M385,234.85c3.232-3.759,4.476-7.981,5.412-15.351l.2-1.53-21.693-2.757c-10.778-1.368-17.392-2.139-19.279-2.307-2.094-.2-2.92.193-3.681,1.722l-.338-.114a33.173,33.173,0,0,0,.721-4.007,33.592,33.592,0,0,0,.295-3.99l.356-.024c.354,1.669,1.056,2.253,3.133,2.588,1.869.308,8.465,1.217,19.243,2.587l21.693,2.756.2-1.6c.936-7.37.789-11.769-1.409-16.145l.322-.314a29.575,29.575,0,0,0,4.1,1.653l-4.647,36.572a29.654,29.654,0,0,0-4.392.643Z" fill="#fff"/>
        </g>
        <g id="Group_979" data-name="Group 979">
          <path id="Path_3854" data-name="Path 3854" d="M354.429,268.682c12.391,7.943,14.153,22.727,6.852,34.115-3.744,5.842-9.529,10.709-15.495,11.963l-3.515-1.921.109-.429c7.561.934,13.5-3.916,17.662-10.407,6.2-9.677,4.149-22.317-7.769-29.957s-24.263-4.232-30.467,5.444c-4.728,7.376-5.054,13.079-2.412,20.516l-.4.241-2.21-1.749c-1.51-6.214-.525-13.075,3.787-19.8C327.869,265.308,342.1,260.776,354.429,268.682Z" fill="#fff"/>
        </g>
        <g id="Group_980" data-name="Group 980">
          <path id="Path_3855" data-name="Path 3855" d="M282.238,315c11.023-7.839,25.687-6.57,34.177,5.369,8.529,11.995,4.874,26.2-6.15,34.043-10.967,7.8-25.59,6.588-34.12-5.407C267.656,337.064,271.271,322.8,282.238,315Zm27.174,38.213c9.367-6.661,11.951-18.991,3.747-30.528s-20.7-13.146-30.068-6.485c-9.311,6.62-11.952,18.991-3.747,30.53S300.1,359.831,309.412,353.21Z" fill="#fff"/>
        </g>
        <g id="Group_981" data-name="Group 981">
          <path id="Path_3856" data-name="Path 3856" d="M208.917,343.654l-.011-.357c1.534-.21,3.257-.535,4.555-.835a43.267,43.267,0,0,0,4.718-1.376l.23.378c-1.733.9-2.143,1.932-.7,3.829,1.346,1.775,4.288,5.485,7.761,9.934l24.107-5.564c.956-4.9,1.833-9.2,2.291-11.892.414-2.255-.773-3.348-2.453-3.464l-.027-.424a25.7,25.7,0,0,0,3.82-.6,29.865,29.865,0,0,0,3.639-1.056l.147.325a6.072,6.072,0,0,0-2.915,4.2c-1.933,8.143-6.986,30.817-10.128,46.505l-.955.22c-8.9-11.757-24.508-31.388-29.153-36.863C212.362,344.873,210.361,343.681,208.917,343.654Zm17.468,12.729L243.57,378.17c1.591-7.131,3.828-18.005,5.693-27.067Z" fill="#fff"/>
        </g>
        <g id="Group_982" data-name="Group 982">
          <path id="Path_3857" data-name="Path 3857" d="M199.925,366.255c-1.856,14.6-14.452,22.538-27.872,20.832-6.883-.873-13.761-4.008-17.456-8.858l.226-4,.434-.086c2.4,7.23,9.334,10.513,16.981,11.484,11.4,1.449,21.938-5.832,23.723-19.878s-6.594-23.728-18-25.177c-8.69-1.105-13.981,1.05-19.564,6.628l-.391-.262.632-2.746c4.963-4.033,11.583-6.089,19.509-5.081C191.57,340.817,201.771,351.723,199.925,366.255Z" fill="#fff"/>
        </g>
        <g id="Group_983" data-name="Group 983">
          <path id="Path_3858" data-name="Path 3858" d="M109.615,313.1l.236-.268A32.85,32.85,0,0,0,113.21,315a33.862,33.862,0,0,0,3.629,1.844l-.115.338c-1.676-.317-2.486.106-3.6,1.9-1,1.606-4.384,7.343-9.765,16.7l27.283,15.687c5.381-9.357,8.638-15.165,9.521-16.84.987-1.858.946-2.771-.172-4.06l.235-.27a32.725,32.725,0,0,0,3.359,2.174,34.045,34.045,0,0,0,3.629,1.844l-.114.338c-1.677-.317-2.487.108-3.6,1.895-1,1.606-4.384,7.343-9.8,16.761s-8.674,15.226-9.556,16.9c-.988,1.857-.947,2.77.172,4.059l-.236.27a33.753,33.753,0,0,0-3.42-2.209,32.739,32.739,0,0,0-3.568-1.81l.114-.339c1.677.318,2.486-.106,3.561-1.832,1-1.607,4.174-6.979,9.205-15.728L102.7,336.934c-5.032,8.749-8.08,14.192-8.927,15.807-.987,1.857-.946,2.77.171,4.06l-.234.268a34.224,34.224,0,0,0-3.42-2.208,32.9,32.9,0,0,0-3.569-1.809l.114-.339c1.678.318,2.487-.106,3.562-1.833,1.038-1.667,4.418-7.4,9.833-16.822s8.673-15.226,9.557-16.9C110.775,315.3,110.733,314.386,109.615,313.1Z" fill="#fff"/>
        </g>
      </g>
    </g>
  </g>
</svg>
