<svg width="28" height="29" viewBox="0 0 28 29" fill="none" xmlns="http://www.w3.org/2000/svg">
<path d="M15.1804 19.5985C15.1804 20.321 15.1804 21.0435 15.1804 21.763C15.1804 22.9028 15.1804 24.0427 15.1804 25.1795C15.1804 25.466 15.2053 25.7619 15.171 26.0484C15.1866 25.9394 15.2022 25.8273 15.2146 25.7183C15.2022 25.7899 15.1835 25.8553 15.1586 25.9207C15.199 25.821 15.2426 25.7214 15.2831 25.6217C15.2489 25.6996 15.2084 25.7681 15.1586 25.8366C15.224 25.7525 15.2894 25.6684 15.3548 25.5843C15.3018 25.6497 15.2458 25.7058 15.1804 25.7556C15.2644 25.6902 15.3485 25.6248 15.4326 25.5594C15.3766 25.5999 15.3174 25.6342 15.2551 25.6622C15.3548 25.6217 15.4544 25.5781 15.5541 25.5376C15.4887 25.5625 15.4233 25.5812 15.3548 25.5937C15.4638 25.5781 15.5759 25.5625 15.6849 25.5501C15.5354 25.5688 15.3797 25.5594 15.2302 25.5594C14.9156 25.5594 14.598 25.5594 14.2834 25.5594C13.2307 25.5594 12.1781 25.5594 11.1254 25.5594C9.84228 25.5594 8.55603 25.5594 7.2729 25.5594C6.1704 25.5594 5.06791 25.5594 3.96541 25.5594C3.44219 25.5594 2.91897 25.5688 2.39575 25.5594C2.34903 25.5594 2.2992 25.5563 2.25249 25.5501C2.36149 25.5656 2.47361 25.5812 2.58261 25.5937C2.5141 25.5812 2.4487 25.5625 2.38329 25.5376C2.48295 25.5781 2.58261 25.6217 2.68228 25.6622C2.61999 25.6342 2.56081 25.5999 2.50475 25.5594C2.58884 25.6248 2.67293 25.6902 2.75702 25.7556C2.69162 25.7058 2.63245 25.6497 2.58261 25.5843C2.64802 25.6684 2.71342 25.7525 2.77882 25.8366C2.72899 25.7681 2.6885 25.6996 2.65425 25.6217C2.69473 25.7214 2.73833 25.821 2.77882 25.9207C2.75391 25.8553 2.73522 25.7868 2.72276 25.7183C2.73833 25.8273 2.75391 25.9394 2.76636 26.0484C2.73833 25.8117 2.75702 25.5656 2.75702 25.3258C2.75702 24.7684 2.75702 24.2078 2.75702 23.6503C2.75702 22.8187 2.75702 21.9872 2.75702 21.1557C2.75702 20.1373 2.75702 19.1188 2.75702 18.1035C2.75702 16.9886 2.75702 15.8705 2.75702 14.7556C2.75702 13.6282 2.75702 12.5007 2.75702 11.3733C2.75702 10.3238 2.75702 9.27423 2.75702 8.22156C2.75702 7.33707 2.75702 6.44947 2.75702 5.56498C2.75702 4.92964 2.75702 4.29742 2.75702 3.66208C2.75702 3.36621 2.75391 3.07346 2.75702 2.77759C2.75702 2.72464 2.76014 2.6717 2.76636 2.61876C2.75079 2.72776 2.73522 2.83988 2.72276 2.94888C2.73522 2.88036 2.75391 2.81496 2.77882 2.74956C2.73833 2.84922 2.69473 2.94888 2.65425 3.04854C2.6885 2.9738 2.72899 2.90528 2.77882 2.83988C2.71342 2.92397 2.64802 3.00806 2.58261 3.09214C2.62622 3.0392 2.67293 2.9956 2.72588 2.952C2.64179 3.0174 2.5577 3.0828 2.47361 3.1482C2.53901 3.09837 2.60753 3.061 2.68539 3.02674C2.58573 3.06723 2.48607 3.11083 2.38641 3.15132C2.45181 3.1264 2.51721 3.11083 2.58573 3.09837C2.47672 3.11394 2.36461 3.12952 2.2556 3.14197C2.40509 3.12329 2.5577 3.13263 2.7103 3.13263C3.02486 3.13263 3.34253 3.13263 3.65708 3.13263C4.70975 3.13263 5.76242 3.13263 6.81508 3.13263C8.09822 3.13263 9.38446 3.13263 10.6676 3.13263C11.7701 3.13263 12.8726 3.13263 13.9751 3.13263C14.4983 3.13263 15.0215 3.12329 15.5447 3.13263C15.5915 3.13263 15.6413 3.13575 15.688 3.14197C15.579 3.1264 15.4669 3.11083 15.3579 3.09837C15.4264 3.11083 15.4918 3.1264 15.5572 3.15132C15.4575 3.11083 15.3579 3.06723 15.2582 3.02674C15.333 3.05789 15.4015 3.09837 15.47 3.1482C15.3859 3.0828 15.3018 3.0174 15.2177 2.952C15.2707 2.9956 15.3174 3.0392 15.361 3.09214C15.2956 3.00806 15.2302 2.92397 15.1648 2.83988C15.2146 2.90528 15.2551 2.97068 15.2894 3.04854C15.2489 2.94888 15.2053 2.84922 15.1648 2.74956C15.1897 2.81496 15.2084 2.88036 15.2208 2.94888C15.2053 2.83988 15.1897 2.72776 15.1772 2.61876C15.2053 2.85234 15.1866 3.09837 15.1866 3.33507C15.1866 3.83649 15.1866 4.3379 15.1866 4.83621C15.1866 5.98854 15.1866 7.14398 15.1866 8.29631C15.1866 8.56414 15.1866 8.83198 15.1866 9.09671C15.1866 9.74762 15.7596 10.3736 16.4324 10.3425C17.1082 10.3113 17.6781 9.79433 17.6781 9.09671C17.6781 8.02847 17.6781 6.95711 17.6781 5.88887C17.6781 5.1601 17.6781 4.43134 17.6781 3.70257C17.6781 3.35687 17.6999 3.00183 17.675 2.65924C17.6314 2.11422 17.429 1.58789 17.0147 1.21728C16.6068 0.852891 16.1116 0.656684 15.5634 0.644226C15.5136 0.644226 15.4638 0.644226 15.4139 0.644226C15.0714 0.644226 14.7288 0.644226 14.3862 0.644226C13.0626 0.644226 11.7358 0.644226 10.4122 0.644226C8.86124 0.644226 7.31027 0.644226 5.75619 0.644226C4.72844 0.644226 3.7038 0.644226 2.67605 0.644226C2.58884 0.644226 2.50475 0.644226 2.41755 0.644226C1.83516 0.64734 1.24965 0.868463 0.847894 1.30136C0.474166 1.70624 0.27173 2.217 0.268616 2.76825C0.268616 2.82431 0.268616 2.87725 0.268616 2.93331C0.268616 3.60291 0.268616 4.27562 0.268616 4.94521C0.268616 6.16294 0.268616 7.38067 0.268616 8.60152C0.268616 10.1213 0.268616 11.6443 0.268616 13.1641C0.268616 14.74 0.268616 16.3159 0.268616 17.8918C0.268616 19.2901 0.268616 20.6854 0.268616 22.0837C0.268616 23.0554 0.268616 24.024 0.268616 24.9957C0.268616 25.2449 0.268616 25.494 0.268616 25.7432C0.268616 25.7961 0.268616 25.8491 0.268616 25.8989C0.277959 26.4719 0.489738 27.0325 0.903953 27.4374C1.31194 27.8392 1.85385 28.0478 2.42378 28.0509C2.5141 28.0509 2.60442 28.0509 2.69785 28.0509C3.10583 28.0509 3.51382 28.0509 3.92181 28.0509C5.31083 28.0509 6.70297 28.0509 8.09199 28.0509C9.62116 28.0509 11.1503 28.0509 12.6795 28.0509C13.5951 28.0509 14.5139 28.0509 15.4295 28.0509C15.4762 28.0509 15.5198 28.0509 15.5665 28.0509C16.7376 28.0229 17.6594 27.0855 17.6843 25.9176C17.6906 25.5812 17.6843 25.248 17.6843 24.9116C17.6843 23.451 17.6843 21.9903 17.6843 20.5297C17.6843 20.2182 17.6843 19.9068 17.6843 19.5922C17.6843 18.9413 17.1113 18.3153 16.4386 18.3465C15.7503 18.3838 15.1804 18.9008 15.1804 19.5985Z" fill="white"/>
<path d="M7.72136 15.5965C8.32556 15.5965 8.92664 15.5965 9.53083 15.5965C10.979 15.5965 12.4272 15.5965 13.8754 15.5965C15.6257 15.5965 17.3791 15.5965 19.1294 15.5965C20.643 15.5965 22.1566 15.5965 23.6733 15.5965C24.4083 15.5965 25.1464 15.6058 25.8814 15.5965C25.8908 15.5965 25.9032 15.5965 25.9126 15.5965C26.5635 15.5965 27.1895 15.0234 27.1583 14.3507C27.1272 13.6749 26.6102 13.1049 25.9126 13.1049C25.3084 13.1049 24.7073 13.1049 24.1031 13.1049C22.6549 13.1049 21.2067 13.1049 19.7585 13.1049C18.0082 13.1049 16.2548 13.1049 14.5045 13.1049C12.9909 13.1049 11.4773 13.1049 9.96062 13.1049C9.22562 13.1049 8.4875 13.0956 7.75251 13.1049C7.74316 13.1049 7.73071 13.1049 7.72136 13.1049C7.07045 13.1049 6.44446 13.678 6.4756 14.3507C6.50363 15.0265 7.02062 15.5965 7.72136 15.5965Z" fill="white"/>
<path d="M20.5714 10.7442C21.0728 11.2456 21.5742 11.7471 22.0756 12.2485C22.876 13.0489 23.6733 13.8462 24.4737 14.6466C24.6575 14.8303 24.8443 15.0172 25.0281 15.2009C25.0281 14.6123 25.0281 14.0268 25.0281 13.4382C24.5267 13.9396 24.0252 14.441 23.5238 14.9424C22.7234 15.7428 21.9261 16.5401 21.1257 17.3405C20.942 17.5243 20.7551 17.7111 20.5714 17.8949C20.1104 18.3558 20.0762 19.2029 20.5714 19.6576C21.0697 20.1155 21.842 20.1497 22.3341 19.6576C22.8355 19.1562 23.337 18.6548 23.8384 18.1534C24.6388 17.353 25.4361 16.5557 26.2365 15.7553C26.4202 15.5715 26.6071 15.3847 26.7908 15.2009C27.2673 14.7244 27.2673 13.9147 26.7908 13.4382C26.2894 12.9368 25.788 12.4353 25.2866 11.9339C24.4862 11.1335 23.6889 10.3362 22.8885 9.53584C22.7047 9.35209 22.5179 9.16523 22.3341 8.98148C21.8732 8.52055 21.0261 8.48629 20.5714 8.98148C20.1136 9.47978 20.0793 10.2522 20.5714 10.7442Z" fill="white"/>
</svg>
