<svg width="36" height="36" viewBox="0 0 36 36" fill="none" xmlns="http://www.w3.org/2000/svg">
<path d="M32.85 28.13L32.51 27.83C31.5455 26.9706 30.7012 25.9851 30 24.9C29.2343 23.4026 28.7753 21.7673 28.65 20.09V15.15C28.6567 12.5156 27.7011 9.9695 25.9628 7.99C24.2245 6.0105 21.8232 4.73388 19.21 4.40002V3.11002C19.21 2.75596 19.0694 2.4164 18.819 2.16604C18.5687 1.91568 18.2291 1.77502 17.875 1.77502C17.521 1.77502 17.1814 1.91568 16.9311 2.16604C16.6807 2.4164 16.54 2.75596 16.54 3.11002V4.42002C13.9503 4.77795 11.578 6.06228 9.86258 8.03513C8.14713 10.008 7.20478 12.5357 7.21005 15.15V20.09C7.0848 21.7673 6.62583 23.4026 5.86005 24.9C5.17093 25.9824 4.34024 26.9678 3.39005 27.83L3.05005 28.13V30.95H32.85V28.13Z" fill="#F48C7D"/>
<path d="M15.3199 32C15.4076 32.6339 15.7217 33.2146 16.2042 33.635C16.6867 34.0553 17.305 34.2869 17.9449 34.2869C18.5849 34.2869 19.2032 34.0553 19.6857 33.635C20.1682 33.2146 20.4823 32.6339 20.5699 32H15.3199Z" fill="#F48C7D"/>
</svg>
