<svg width="36" height="23" viewBox="0 0 36 23" fill="none" xmlns="http://www.w3.org/2000/svg">
<path d="M17.9331 10.4497C20.1259 10.4497 22.1323 11.2531 23.6406 12.5956C24.89 11.5034 26.5408 10.8516 28.3413 10.8516C32.2122 10.8516 35.3787 13.8605 35.3787 17.7671V20.2394C35.3787 20.7682 34.9489 21.1989 34.4196 21.1989H26.39V21.777C26.39 22.3468 25.9256 22.8112 25.3558 22.8112H10.5103C9.94053 22.8112 9.47611 22.3468 9.47611 21.777V21.1989H1.44698C0.91769 21.1989 0.487915 20.7682 0.487915 20.2394V17.7671C0.487915 13.8605 3.65439 10.8516 7.52529 10.8516C9.32585 10.8516 10.9762 11.5029 12.2255 12.5951C13.7334 11.2526 15.7403 10.4497 17.933 10.4497H17.9331ZM9.47613 19.9598V18.7578C9.47613 16.7299 10.1854 14.9055 11.3655 13.4854C10.3425 12.6112 8.99709 12.0907 7.52532 12.0907C4.33299 12.0907 1.72704 14.5391 1.72704 17.767V19.9598H9.47616L9.47613 19.9598ZM24.5007 13.4859C25.6807 14.906 26.39 16.7299 26.39 18.7578V19.9598H34.1396V17.767C34.1396 14.5391 31.5337 12.0907 28.3414 12.0907C26.8696 12.0907 25.5232 12.6117 24.5007 13.4859L24.5007 13.4859ZM23.067 13.7503C21.7586 12.4668 19.9395 11.6887 17.9331 11.6887C15.9266 11.6887 14.1075 12.4668 12.7992 13.7503C11.5128 15.0123 10.7152 16.769 10.7152 18.7578V21.5721H25.1509V18.7578C25.1509 16.769 24.3533 15.0123 23.0669 13.7503H23.067Z" fill="white"/>
<path d="M17.9331 0.239471C20.4918 0.239471 22.5665 2.31419 22.5665 4.87284C22.5665 7.431 20.4913 9.50572 17.9331 9.50572C15.375 9.50572 13.2997 7.431 13.2997 4.87284C13.2997 2.31419 15.3745 0.239471 17.9331 0.239471V0.239471ZM17.9331 1.47855C16.0589 1.47855 14.5388 2.99861 14.5388 4.87284C14.5388 6.74706 16.0589 8.26664 17.9331 8.26664C19.8073 8.26664 21.3274 6.74706 21.3274 4.87284C21.3274 2.99861 19.8073 1.47855 17.9331 1.47855Z" fill="white"/>
<path d="M28.3412 2.36786C30.4945 2.36786 32.2477 4.1211 32.2477 6.27437C32.2477 8.43153 30.4979 10.1804 28.3412 10.1804C26.1845 10.1804 24.4347 8.43153 24.4347 6.27437C24.4347 4.1211 26.1879 2.36786 28.3412 2.36786ZM28.3412 3.60693C26.865 3.60693 25.6738 4.79869 25.6738 6.27436C25.6738 7.74711 26.8685 8.9413 28.3412 8.9413C29.8139 8.9413 31.0086 7.7471 31.0086 6.27436C31.0086 4.7982 29.8174 3.60693 28.3412 3.60693Z" fill="white"/>
<path d="M7.52522 2.36786C9.67848 2.36786 11.4317 4.1211 11.4317 6.27437C11.4317 8.43153 9.6819 10.1804 7.52522 10.1804C5.36854 10.1804 3.61871 8.43153 3.61871 6.27437C3.61871 4.1211 5.37196 2.36786 7.52522 2.36786ZM7.52522 3.60693C6.04906 3.60693 4.85779 4.79821 4.85779 6.27436C4.85779 7.74711 6.05248 8.9413 7.52522 8.9413C8.99797 8.9413 10.1927 7.7471 10.1927 6.27436C10.1927 4.79869 9.00138 3.60693 7.52522 3.60693Z" fill="white"/>
</svg>
