<svg width="26" height="24" viewBox="0 0 26 24" fill="none" xmlns="http://www.w3.org/2000/svg">
<path d="M22.8418 0.000411325C21.6147 0.000411325 20.6214 0.999064 20.6214 2.22087C20.6214 2.7043 20.7807 3.15574 21.041 3.52223L17.4713 7.1504C17.1686 6.99106 16.8285 6.90609 16.4674 6.90609C15.2402 6.90609 14.2469 7.90474 14.2469 9.12654C14.2469 9.93929 14.6826 10.651 15.336 11.0389L13.8804 17.0044C13.8593 16.999 13.8327 16.999 13.8115 16.999C13.7211 16.999 13.6361 17.0044 13.5512 17.0148L9.72648 12.0748C10.0134 11.6977 10.1887 11.2303 10.1887 10.7203C10.1887 9.49846 9.19544 8.4998 7.96826 8.4998C6.74108 8.4998 5.7478 9.49846 5.7478 10.7203C5.7478 11.347 6.00811 11.9154 6.42776 12.3245L3.44221 18.2046C3.27227 18.1726 3.10233 18.1568 2.92158 18.1568C1.31192 18.1568 0 19.469 0 21.0784C0 22.6878 1.31217 24 2.92158 24C4.53098 24 5.84315 22.6878 5.84315 21.0784C5.84315 20.0214 5.27995 19.0917 4.43544 18.5871L7.34646 12.85C7.54299 12.9084 7.75012 12.9401 7.96806 12.9401C8.30275 12.9401 8.61606 12.8658 8.89776 12.733L12.5205 17.4182C11.9575 17.8166 11.5908 18.4752 11.5908 19.219C11.5908 20.446 12.5841 21.4394 13.8113 21.4394C15.0382 21.4394 16.0317 20.4462 16.0317 19.219C16.0317 18.3903 15.5749 17.6625 14.9003 17.2853L16.3558 11.341C16.393 11.3464 16.4302 11.3464 16.4674 11.3464C17.6943 11.3464 18.6878 10.3531 18.6878 9.12592C18.6878 8.64769 18.5337 8.20703 18.2787 7.84577L21.8537 4.20699C22.1512 4.35574 22.4859 4.44072 22.8418 4.44072C24.0688 4.44072 25.0622 3.44744 25.0622 2.22026C25.0622 0.998653 24.0688 0 22.8418 0L22.8418 0.000411325Z" fill="#334A52"/>
</svg>
