<svg width="42" height="42" viewBox="0 0 42 42" fill="none" xmlns="http://www.w3.org/2000/svg">
<circle cx="21" cy="21" r="21" fill="#EFEFEF"/>
<path fill-rule="evenodd" clip-rule="evenodd" d="M15.0014 14.0183H26.9987V14.8741H15.0014V14.0183ZM15.0014 17.0271H26.9987V17.8829H15.0014V17.0271ZM15.0014 20.0359H26.9987V20.8917H15.0014V20.0359ZM30.0215 24.4516V12.8807C30.0215 11.7636 29.5649 10.7481 28.829 10.0123C28.0932 9.27651 27.0778 8.81982 25.9606 8.81982H11.9785V24.4516L30.0215 24.4516Z" fill="#05AC4E"/>
<path fill-rule="evenodd" clip-rule="evenodd" d="M30.0216 24.8792H9.24011V33.1378H32.7601V24.8792H30.0213H30.0216ZM17.1975 29.4128L18.3999 29.7767C18.3191 30.1137 18.1921 30.3951 18.0183 30.6216C17.8446 30.848 17.6287 31.0186 17.3712 31.1335C17.1137 31.2494 16.7859 31.3062 16.3888 31.3062C15.9059 31.3062 15.5108 31.2359 15.206 31.0963C14.8998 30.9557 14.6352 30.7087 14.4128 30.3549C14.1915 30.0014 14.0799 29.5495 14.0799 28.9984C14.0799 28.2633 14.2753 27.6976 14.6663 27.3036C15.057 26.9086 15.6102 26.7112 16.3249 26.7112C16.8842 26.7112 17.3238 26.8238 17.6442 27.0504C17.9649 27.2769 18.2025 27.6243 18.3576 28.0926L17.1457 28.3626C17.1034 28.2271 17.0589 28.1278 17.0123 28.0649C16.9359 27.9604 16.8416 27.8797 16.7311 27.8229C16.6195 27.7661 16.4952 27.7381 16.3577 27.7381C16.0475 27.7381 15.8086 27.8632 15.6433 28.1135C15.5182 28.2997 15.455 28.5913 15.455 28.9892C15.455 29.4823 15.5304 29.8195 15.6794 30.0024C15.8294 30.1855 16.0393 30.2764 16.309 30.2764C16.5716 30.2764 16.7703 30.2031 16.9045 30.0551C17.039 29.9081 17.136 29.6942 17.1972 29.413L17.1975 29.4128ZM18.827 29.7581L20.1328 29.6764C20.1609 29.8883 20.2187 30.0498 20.3055 30.1613C20.4461 30.3412 20.6489 30.4303 20.9115 30.4303C21.1068 30.4303 21.2579 30.3847 21.3643 30.2928C21.4698 30.2008 21.5225 30.0943 21.5225 29.9734C21.5225 29.8585 21.4728 29.7551 21.3715 29.6642C21.2701 29.5732 21.0365 29.4874 20.6682 29.4067C20.0664 29.2712 19.6374 29.0924 19.381 28.868C19.1225 28.6436 18.9934 28.3583 18.9934 28.0109C18.9934 27.7824 19.0596 27.5662 19.1918 27.3637C19.3242 27.161 19.5226 27.0018 19.7883 26.8849C20.0539 26.769 20.4179 26.7112 20.8802 26.7112C21.4479 26.7112 21.8811 26.8166 22.1789 27.0275C22.4766 27.2384 22.6534 27.5746 22.7104 28.0345L21.4168 28.1099C21.3827 27.9105 21.3103 27.7646 21.1995 27.6736C21.09 27.5837 20.938 27.5381 20.7446 27.5381C20.5844 27.5381 20.4645 27.5712 20.3837 27.6395C20.303 27.7067 20.2627 27.7895 20.2627 27.8866C20.2627 27.9569 20.2959 28.02 20.3621 28.0768C20.4273 28.1357 20.5804 28.1894 20.8233 28.2401C21.4232 28.3692 21.852 28.5007 22.1116 28.6331C22.3712 28.7655 22.5604 28.9288 22.6783 29.1252C22.7962 29.3205 22.8561 29.5398 22.8561 29.7828C22.8561 30.0671 22.7764 30.3299 22.6192 30.5695C22.4621 30.8105 22.2418 30.9923 21.9585 31.1166C21.6763 31.2407 21.3195 31.3028 20.8893 31.3028C20.1347 31.3028 19.6112 31.1582 19.3209 30.8665C19.0292 30.5759 18.865 30.2069 18.8265 29.7581L18.827 29.7581ZM23.1077 26.7866H24.543L25.5429 29.9826L26.5274 26.7866H27.9211L26.2729 31.2275H24.786L23.1077 26.7866Z" fill="#05AC4E"/>
</svg>
