<svg width="23" height="23" viewBox="0 0 23 23" fill="none" xmlns="http://www.w3.org/2000/svg">
<path d="M1.80446 12.7119H9.07607C9.74263 12.7119 10.288 12.1665 10.288 11.4999V1.80446C10.288 1.1379 9.74263 0.592529 9.07607 0.592529H1.80446C1.1379 0.592529 0.592529 1.1379 0.592529 1.80446V11.4999C0.592529 12.1665 1.1379 12.7119 1.80446 12.7119ZM1.80446 22.4073H9.07607C9.74263 22.4073 10.288 21.862 10.288 21.1954V16.3477C10.288 15.6811 9.74263 15.1357 9.07607 15.1357H1.80446C1.1379 15.1357 0.592529 15.6811 0.592529 16.3477V21.1954C0.592529 21.862 1.1379 22.4073 1.80446 22.4073ZM13.9238 22.4073H21.1954C21.862 22.4073 22.4073 21.862 22.4073 21.1954V11.4999C22.4073 10.8334 21.862 10.288 21.1954 10.288H13.9238C13.2572 10.288 12.7119 10.8334 12.7119 11.4999V21.1954C12.7119 21.862 13.2572 22.4073 13.9238 22.4073ZM12.7119 1.80446V6.6522C12.7119 7.31876 13.2572 7.86413 13.9238 7.86413H21.1954C21.862 7.86413 22.4073 7.31876 22.4073 6.6522V1.80446C22.4073 1.1379 21.862 0.592529 21.1954 0.592529H13.9238C13.2572 0.592529 12.7119 1.1379 12.7119 1.80446Z" fill="#334A52"/>
</svg>
