<svg width="24" height="22" viewBox="0 0 24 22" fill="none" xmlns="http://www.w3.org/2000/svg">
<path fill-rule="evenodd" clip-rule="evenodd" d="M19.113 16.5182C19.2978 16.2476 19.6668 16.1778 19.9376 16.3628C20.2082 16.5476 20.278 16.9166 20.093 17.1874C19.0855 18.6658 17.7259 19.8862 16.1345 20.7283C14.6001 21.5402 12.8527 22 10.9996 22C7.96224 22 5.21251 20.7689 3.22159 18.7782C1.23146 16.787 0 14.037 0 10.9998C0 7.96257 1.23109 5.2127 3.22178 3.22178C5.21228 1.23109 7.96257 0 10.9998 0C12.8527 0 14.6005 0.459832 16.1347 1.27168C17.7261 2.11361 19.0854 3.33401 20.0932 4.81263C20.278 5.08325 20.2082 5.45244 19.9378 5.63721C19.6671 5.82199 19.2979 5.75221 19.1132 5.48178C18.2135 4.16152 17.0005 3.07244 15.5822 2.32186C14.216 1.59897 12.6569 1.18973 11.0001 1.18973C8.291 1.18973 5.83828 2.28769 4.06285 4.06299C2.28684 5.83772 1.18888 8.29043 1.18888 10.9998C1.18888 13.7092 2.28684 16.1617 4.06214 17.9371C5.83743 19.7125 8.28996 20.8104 10.9994 20.8104C12.6562 20.8104 14.2157 20.4009 15.5815 19.6782C17.0003 18.9278 18.2129 17.8387 19.1127 16.5185L19.113 16.5182ZM23.2036 11.234C23.2747 11.1736 23.312 11.0931 23.312 10.9999C23.312 10.9065 23.2747 10.8262 23.2036 10.7658L18.2232 6.53745C18.1298 6.45807 18.0065 6.44146 17.8954 6.49277C17.7843 6.54427 17.7173 6.64913 17.7173 6.77151V8.7408H8.46722C8.12904 8.7408 7.85307 9.01677 7.85307 9.35495V12.6444C7.85307 12.9826 8.12904 13.2586 8.46722 13.2586H17.7173V15.2279C17.7173 15.3503 17.7843 15.4553 17.8954 15.5066C18.0065 15.5581 18.1296 15.5413 18.2232 15.4619L23.2036 11.234Z" fill="#334A52"/>
</svg>
